<?xml version="1.0" encoding="UTF-8"?>
<svg height="128px" viewBox="0 0 128 128" width="128px" xmlns="http://www.w3.org/2000/svg">
    <path d="m 64.097656 8 c -20.160156 0 -36.5 8.046875 -36.5 17.984375 v 17.980469 c 0 0.765625 0.097656 1.519531 0.285156 2.265625 c 1.214844 4.769531 6.214844 8.953125 13.480469 11.800781 c 2.796875 1.101562 5.921875 2 9.304688 2.65625 c 1.90625 0.375 3.890625 0.667969 5.9375 0.875 v -23.109375 c -6.210938 -0.625 -11.632813 -2.015625 -15.578125 -3.890625 c -1.652344 -0.789062 -3.039063 -1.660156 -4.121094 -2.59375 c -1.703125 -1.464844 -2.648438 -3.089844 -2.648438 -4.804688 c 0 -6.4375 13.359376 -11.652343 29.839844 -11.652343 c 16.480469 0 29.839844 5.210937 29.839844 11.652343 c 0 1.714844 -0.945312 3.339844 -2.648438 4.804688 c -1.082031 0.933594 -2.46875 1.804688 -4.121093 2.59375 c -3.945313 1.875 -9.367188 3.265625 -15.578125 3.890625 v 23.109375 c 2.046875 -0.210938 4.03125 -0.5 5.9375 -0.875 c 3.382812 -0.65625 6.507812 -1.554688 9.304687 -2.65625 c 7.265625 -2.847656 12.261719 -7.03125 13.480469 -11.800781 c 0.1875 -0.746094 0.285156 -1.5 0.285156 -2.265625 v -17.980469 c 0 -9.9375 -16.339844 -17.984375 -36.5 -17.984375 z m 0 0" fill="#f6d32d"/>
    <path d="m 56.605469 66.097656 c -5.242188 -0.539062 -10.070313 -1.632812 -14.222657 -3.144531 c -2.128906 -0.78125 -4.082031 -1.667969 -5.824218 -2.65625 c -5.574219 -3.152344 -8.960938 -7.28125 -8.960938 -11.800781 v 23.601562 c 0 0.90625 0.132813 1.796875 0.390625 2.65625 v 0.011719 c 1.464844 4.820313 6.804688 9.011719 14.394531 11.792969 c 4.152344 1.511718 8.980469 2.605468 14.222657 3.144531 z m 0 0" fill="#e01b24"/>
    <path d="m 91.636719 60.296875 c -1.742188 0.988281 -3.695313 1.875 -5.828125 2.65625 c -4.152344 1.511719 -8.980469 2.605469 -14.21875 3.144531 v 23.605469 c 5.242187 -0.539063 10.070312 -1.632813 14.21875 -3.144531 c 7.59375 -2.78125 12.929687 -6.972656 14.394531 -11.792969 v -0.011719 c 0.257813 -0.859375 0.394531 -1.746094 0.394531 -2.65625 v -23.601562 c 0 4.519531 -3.386718 8.648437 -8.960937 11.800781 z m 0 0" fill="#e01b24"/>
    <g fill="#3584e4">
        <path d="m 51.242188 106.855469 h 5.363281 v -11.839844 c -7.933594 -0.816406 -14.914063 -2.894531 -20.046875 -5.800781 c -5.574219 -3.152344 -8.960938 -7.285156 -8.960938 -11.804688 v 23.605469 c 0 9.808594 15.957032 17.789063 35.78125 17.980469 z m 0 0"/>
        <path d="m 91.636719 89.210938 c -5.132813 2.90625 -12.117188 4.988281 -20.046875 5.800781 v 11.839843 h 5.363281 l -12.140625 12.140626 c 19.828125 -0.191407 35.785156 -8.167969 35.785156 -17.980469 v -23.605469 c 0 4.519531 -3.386718 8.648438 -8.960937 11.804688 z m 0 0"/>
    </g>
</svg>
