<?xml version="1.0" encoding="UTF-8"?><svg id="a" xmlns="http://www.w3.org/2000/svg" viewBox="0 0 1920 1080"><defs><style>.b{fill:#074f5b;}.c{fill:#042c33;}.d{fill:#05042b;}.e{fill:#72dddd;}.f{fill:#0b075e;}.g{fill:#488c8c;}</style></defs><g><path class="d" d="M1061.05,543.72c-.83,2.07-2.28,5.18-5.6,8.92-1.45,1.66-4.56,5.18-9.54,8.29-11.4,6.84-26.33,7.26-39.19,7.26h-51.01v55.15h-36.08v-146.38h90.4c3.73,0,7.47,0,11.2,.21,15.13,1.04,29.44,5.6,37.53,19.49,2.7,4.36,6.43,13.27,6.43,26.13,0,3.11-.21,12.44-4.15,20.94Zm-44.78-40.43c-2.49-.83-4.15-1.04-9.12-1.04h-51.42v40.22h44.99c5.39,0,12.85,0,17.83-2.07,9.95-4.15,10.16-14.1,10.16-17.62,0-3.11-.62-15.97-12.44-19.49Z"/><path class="d" d="M1201.42,623.33l-38.98-58.89h-41.88v58.89h-36.49v-146.38h100.77c12.65,0,18.25,.83,24.26,2.69,18.87,5.6,29.23,21.77,29.23,41.05,0,3.73-.21,10.99-3.94,19.28-6.64,14.93-19.28,19.49-34.21,22.19l44.58,61.16h-43.33Zm-3.11-113.21c-4.56-7.05-12.65-7.46-20.11-7.46h-57.64v35.87h58.68c.21,0,6.01,.21,9.12-.62,4.35-1.04,12.86-4.77,12.86-16.79,0-1.45-.21-6.84-2.9-10.99Z"/><path class="d" d="M1427.01,641.58l-36.7-22.19c-2.9,1.24-5.81,2.28-8.92,3.32-6.22,1.87-20.11,5.39-37.53,5.39-43.12,0-66.14-17.83-76.71-33.17-4.98-7.05-13.06-22.39-13.06-44.79,0-25.3,9.12-40.43,15.55-48.31,23.43-29.23,65.1-29.65,74.43-29.65,6.01,0,28.41,.62,47.69,9.12,7.05,3.11,11.82,6.63,14.51,8.5,1.66,1.24,6.43,4.77,10.57,9.54,6.63,7.26,16.79,24.05,16.79,49.35,0,6.43-.41,25.71-10.99,42.92-1.24,2.28-2.7,4.35-6.01,8.5l26.96,13.89-16.59,27.58Zm-43.75-126.89c-10.16-11.2-25.92-16.38-41.05-15.97-3.32,.21-12.03,.83-21.15,4.77-27.16,12.03-29.24,37.94-29.24,47.69,0,2.9,.21,12.44,3.94,21.15,1.04,2.69,2.28,5.39,5.6,9.95,1.04,1.24,3.73,5.18,7.46,8.29,5.81,4.98,17,11.2,35.04,11.2,3.32,0,12.03-.21,21.15-3.52,28.82-10.37,31.31-38.77,31.31-47.9,0-6.22-.83-22.18-13.06-35.66Z"/><path class="d" d="M1459.77,623.33v-146.38h36.7v119.43h81.28v26.95h-117.98Z"/></g><g><path class="d" d="M342.26,255.67v127c16.83-137.23,411.95-137.31,428.86,0v-127c2.3-133.49-430.99-133.6-428.86,0Z"/><path class="g" d="M771.12,697.33c0-14-5.76-27.2-16.2-39.28-32.21,37.18-108.88,63.42-198.15,63.42,68.21,0,129.22,15.45,168.45,39.28,28.8-17.38,45.9-39.44,45.9-63.42Z"/><path class="e" d="M771.12,824.33v-127c-16.83,137.23-411.95,137.31-428.86,0v127c-2.3,133.49,430.99,133.6,428.86,0Z"/><path class="f" d="M771.12,389.07v-127c-16.83,137.23-411.95,137.31-428.86,0v127c-2.3,133.49,430.99,133.6,428.86,0Z"/><path class="c" d="M342.26,479.7c0-14,5.76-27.2,16.2-39.28,32.21,37.18,108.88,63.42,198.15,63.42-68.21,0-129.22,15.45-168.45,39.28-28.8-17.38-45.9-39.44-45.9-63.42Z"/><path class="b" d="M342.26,606.7v-127c16.83,137.23,411.95,137.31,428.86,0v127c2.3,133.49-430.99,133.6-428.86,0Z"/></g></svg>