<?xml version="1.0" encoding="UTF-8"?><svg id="a" xmlns="http://www.w3.org/2000/svg" viewBox="0 0 1920 1080"><defs><style>.b{fill:#191717;}.c{fill:#dc3c2a;}.d{fill:#4081ec;}.e{fill:#e9af00;}</style></defs><g><path class="b" d="M1021.65,540.23c-.89,2.23-2.46,5.58-6.02,9.6-1.56,1.79-4.91,5.58-10.27,8.93-12.27,7.36-28.34,7.81-42.18,7.81h-54.89v59.36h-38.83v-157.54h97.29c4.02,0,8.03,0,12.05,.22,16.29,1.12,31.69,6.02,40.39,20.98,2.9,4.69,6.92,14.28,6.92,28.12,0,3.35-.22,13.39-4.46,22.54Zm-48.2-43.51c-2.68-.89-4.46-1.12-9.82-1.12h-55.34v43.29h48.42c5.8,0,13.83,0,19.19-2.23,10.71-4.46,10.93-15.17,10.93-18.97,0-3.35-.67-17.18-13.39-20.98Z"/><path class="b" d="M1172.72,625.92l-41.95-63.38h-45.08v63.38h-39.28v-157.54h108.45c13.61,0,19.64,.89,26.11,2.9,20.31,6.02,31.46,23.43,31.46,44.18,0,4.02-.22,11.83-4.24,20.75-7.14,16.07-20.75,20.98-36.82,23.88l47.98,65.83h-46.64Zm-3.35-121.84c-4.91-7.59-13.61-8.03-21.64-8.03h-62.04v38.6h63.15c.22,0,6.47,.22,9.82-.67,4.69-1.12,13.84-5.13,13.84-18.08,0-1.56-.22-7.36-3.13-11.83Z"/><path class="b" d="M1415.52,645.55l-39.5-23.88c-3.12,1.34-6.25,2.45-9.6,3.57-6.69,2.01-21.65,5.8-40.39,5.8-46.42,0-71.19-19.19-82.57-35.7-5.36-7.59-14.06-24.1-14.06-48.2,0-27.22,9.82-43.51,16.74-51.99,25.22-31.46,70.07-31.91,80.11-31.91,6.47,0,30.57,.67,51.32,9.82,7.59,3.35,12.72,7.14,15.62,9.15,1.79,1.34,6.92,5.13,11.38,10.27,7.14,7.81,18.08,25.89,18.08,53.11,0,6.92-.45,27.67-11.83,46.19-1.34,2.46-2.9,4.69-6.47,9.15l29.01,14.95-17.85,29.68Zm-47.09-136.57c-10.93-12.05-27.89-17.63-44.18-17.18-3.57,.22-12.94,.89-22.76,5.13-29.23,12.94-31.46,40.84-31.46,51.32,0,3.13,.22,13.39,4.24,22.76,1.12,2.9,2.46,5.8,6.03,10.71,1.12,1.34,4.02,5.58,8.03,8.93,6.25,5.36,18.3,12.05,37.71,12.05,3.57,0,12.94-.22,22.76-3.79,31.02-11.16,33.7-41.73,33.7-51.55,0-6.7-.89-23.88-14.06-38.38Z"/><path class="b" d="M1450.78,625.92v-157.54h39.5v128.53h87.48v29.01h-126.97Z"/></g><g><path class="e" d="M540.97,237.84c-109.76,0-198.72,43.81-198.72,97.91v97.91c0,4.16,.53,8.27,1.55,12.33,6.62,25.97,33.85,48.74,73.4,64.26,15.23,6,32.25,10.88,50.67,14.46,10.37,2.04,21.18,3.63,32.31,4.77v-125.83c-33.8-3.41-63.33-10.97-84.82-21.19-8.99-4.3-16.54-9.04-22.43-14.12-9.28-7.98-14.41-16.83-14.41-26.16,0-35.05,72.72-63.44,162.46-63.44s162.46,28.38,162.46,63.44c0,9.33-5.13,18.18-14.41,26.16-5.9,5.08-13.44,9.82-22.43,14.12-21.49,10.22-51.02,17.78-84.82,21.19v125.83c11.13-1.15,21.94-2.74,32.31-4.77,18.42-3.58,35.44-8.46,50.67-14.46,39.55-15.52,66.77-38.29,73.4-64.26,1.02-4.06,1.55-8.17,1.55-12.33v-97.91c0-54.1-88.97-97.91-198.72-97.91Z"/><g><path class="c" d="M500.18,554.16c-28.54-2.94-54.83-8.88-77.42-17.12-11.6-4.26-22.24-9.09-31.72-14.46-30.36-17.17-48.79-39.65-48.79-64.26v128.52c0,4.93,.73,9.77,2.13,14.46v.05c7.98,26.25,37.04,49.08,78.38,64.21,22.6,8.24,48.89,14.19,77.42,17.12v-128.52Z"/><path class="c" d="M690.91,522.58c-9.48,5.37-20.11,10.2-31.72,14.46-22.6,8.24-48.89,14.19-77.42,17.12v128.52c28.54-2.94,54.83-8.88,77.42-17.12,41.34-15.13,70.4-37.96,78.38-64.21v-.05c1.4-4.69,2.13-9.52,2.13-14.46v-128.52c0,24.61-18.42,47.09-48.79,64.26Z"/></g><g><path class="d" d="M470.98,776.07h29.2v-64.47c-43.18-4.43-81.2-15.76-109.14-31.58-30.36-17.16-48.79-39.65-48.79-64.26v128.52c0,53.41,86.87,96.86,194.82,97.89l-66.09-66.09Z"/><path class="d" d="M690.91,680.01c-27.94,15.82-65.96,27.15-109.14,31.58v64.47h29.2l-66.09,66.09c107.95-1.03,194.82-44.47,194.82-97.89v-128.52c0,24.61-18.42,47.09-48.79,64.26Z"/></g></g></svg>