<?xml version="1.0" encoding="UTF-8"?>
<svg id="a" xmlns="http://www.w3.org/2000/svg" viewBox="0 0 1080 1080">
  <defs>
    <style>
      .b {
        fill: #191717;
      }

      .c {
        fill: #dc3c2a;
      }

      .d {
        fill: #4081ec;
      }

      .e {
        fill: #e9af00;
      }
    </style>
  </defs>
  <g>
    <path class="e"
      d="M540.97,237.84c-109.76,0-198.72,43.81-198.72,97.91v97.91c0,4.16,.53,8.27,1.55,12.33,6.62,25.97,33.85,48.74,73.4,64.26,15.23,6,32.25,10.88,50.67,14.46,10.37,2.04,21.18,3.63,32.31,4.77v-125.83c-33.8-3.41-63.33-10.97-84.82-21.19-8.99-4.3-16.54-9.04-22.43-14.12-9.28-7.98-14.41-16.83-14.41-26.16,0-35.05,72.72-63.44,162.46-63.44s162.46,28.38,162.46,63.44c0,9.33-5.13,18.18-14.41,26.16-5.9,5.08-13.44,9.82-22.43,14.12-21.49,10.22-51.02,17.78-84.82,21.19v125.83c11.13-1.15,21.94-2.74,32.31-4.77,18.42-3.58,35.44-8.46,50.67-14.46,39.55-15.52,66.77-38.29,73.4-64.26,1.02-4.06,1.55-8.17,1.55-12.33v-97.91c0-54.1-88.97-97.91-198.72-97.91Z" />
    <g>
      <path class="c"
        d="M500.18,554.16c-28.54-2.94-54.83-8.88-77.42-17.12-11.6-4.26-22.24-9.09-31.72-14.46-30.36-17.17-48.79-39.65-48.79-64.26v128.52c0,4.93,.73,9.77,2.13,14.46v.05c7.98,26.25,37.04,49.08,78.38,64.21,22.6,8.24,48.89,14.19,77.42,17.12v-128.52Z" />
      <path class="c"
        d="M690.91,522.58c-9.48,5.37-20.11,10.2-31.72,14.46-22.6,8.24-48.89,14.19-77.42,17.12v128.52c28.54-2.94,54.83-8.88,77.42-17.12,41.34-15.13,70.4-37.96,78.38-64.21v-.05c1.4-4.69,2.13-9.52,2.13-14.46v-128.52c0,24.61-18.42,47.09-48.79,64.26Z" />
    </g>
    <g>
      <path class="d"
        d="M470.98,776.07h29.2v-64.47c-43.18-4.43-81.2-15.76-109.14-31.58-30.36-17.16-48.79-39.65-48.79-64.26v128.52c0,53.41,86.87,96.86,194.82,97.89l-66.09-66.09Z" />
      <path class="d"
        d="M690.91,680.01c-27.94,15.82-65.96,27.15-109.14,31.58v64.47h29.2l-66.09,66.09c107.95-1.03,194.82-44.47,194.82-97.89v-128.52c0,24.61-18.42,47.09-48.79,64.26Z" />
    </g>
  </g>
</svg>
