<?xml version="1.0" encoding="UTF-8" standalone="no"?>
<svg
   id="a"
   viewBox="0 0 2030 604"
   version="1.1"
   sodipodi:docname="prql-wordmark.svg"
   inkscape:version="1.2.2 (b0a8486, 2022-12-01)"
   width="2030"
   height="604"
   xmlns:inkscape="http://www.inkscape.org/namespaces/inkscape"
   xmlns:sodipodi="http://sodipodi.sourceforge.net/DTD/sodipodi-0.dtd"
   xmlns="http://www.w3.org/2000/svg"
   xmlns:svg="http://www.w3.org/2000/svg">
  <sodipodi:namedview
     id="namedview844"
     pagecolor="#ffffff"
     bordercolor="#666666"
     borderopacity="1.0"
     inkscape:showpageshadow="2"
     inkscape:pageopacity="0.0"
     inkscape:pagecheckerboard="0"
     inkscape:deskcolor="#d1d1d1"
     showgrid="false"
     inkscape:zoom="27.97037"
     inkscape:cx="4.9516685"
     inkscape:cy="114.33528"
     inkscape:window-width="1323"
     inkscape:window-height="752"
     inkscape:window-x="368"
     inkscape:window-y="36"
     inkscape:window-maximized="0"
     inkscape:current-layer="a" />
  <defs
     id="defs815">
    <style
       id="style813">.b{fill:#191717;}.c{fill:#dc3c2a;}.d{fill:#4081ec;}.e{fill:#e9af00;}</style>
  </defs>
  <g
     id="g1922"
     transform="translate(-8.2166303,-237.82124)">
    <g
       id="g825"
       transform="translate(-156)">
      <text
         xml:space="preserve"
         style="font-size:29.3333px;line-height:1.25;font-family:'Dancing Script';-inkscape-font-specification:'Dancing Script';font-variant-ligatures:none;word-spacing:0px"
         x="717.32202"
         y="750.77972"
         id="text1844"><tspan
           sodipodi:role="line"
           id="tspan1842"
           x="717.32202"
           y="750.77972"
           style="font-style:normal;font-variant:normal;font-weight:normal;font-stretch:normal;font-size:560px;font-family:Inter;-inkscape-font-specification:'Inter, Normal';font-variant-ligatures:none;font-variant-caps:normal;font-variant-numeric:normal;font-variant-east-asian:normal">PRQL</tspan></text>
    </g>
    <g
       id="g841"
       transform="translate(-334)">
      <path
         class="e"
         d="m 540.97,237.84 c -109.76,0 -198.72,43.81 -198.72,97.91 v 97.91 c 0,4.16 0.53,8.27 1.55,12.33 6.62,25.97 33.85,48.74 73.4,64.26 15.23,6 32.25,10.88 50.67,14.46 10.37,2.04 21.18,3.63 32.31,4.77 V 403.65 c -33.8,-3.41 -63.33,-10.97 -84.82,-21.19 -8.99,-4.3 -16.54,-9.04 -22.43,-14.12 -9.28,-7.98 -14.41,-16.83 -14.41,-26.16 0,-35.05 72.72,-63.44 162.46,-63.44 89.74,0 162.46,28.38 162.46,63.44 0,9.33 -5.13,18.18 -14.41,26.16 -5.9,5.08 -13.44,9.82 -22.43,14.12 -21.49,10.22 -51.02,17.78 -84.82,21.19 v 125.83 c 11.13,-1.15 21.94,-2.74 32.31,-4.77 18.42,-3.58 35.44,-8.46 50.67,-14.46 39.55,-15.52 66.77,-38.29 73.4,-64.26 1.02,-4.06 1.55,-8.17 1.55,-12.33 v -97.91 c 0,-54.1 -88.97,-97.91 -198.72,-97.91 z"
         id="path827" />
      <g
         id="g833">
        <path
           class="c"
           d="m 500.18,554.16 c -28.54,-2.94 -54.83,-8.88 -77.42,-17.12 -11.6,-4.26 -22.24,-9.09 -31.72,-14.46 -30.36,-17.17 -48.79,-39.65 -48.79,-64.26 v 128.52 c 0,4.93 0.73,9.77 2.13,14.46 v 0.05 c 7.98,26.25 37.04,49.08 78.38,64.21 22.6,8.24 48.89,14.19 77.42,17.12 z"
           id="path829" />
        <path
           class="c"
           d="m 690.91,522.58 c -9.48,5.37 -20.11,10.2 -31.72,14.46 -22.6,8.24 -48.89,14.19 -77.42,17.12 v 128.52 c 28.54,-2.94 54.83,-8.88 77.42,-17.12 41.34,-15.13 70.4,-37.96 78.38,-64.21 v -0.05 c 1.4,-4.69 2.13,-9.52 2.13,-14.46 V 458.32 c 0,24.61 -18.42,47.09 -48.79,64.26 z"
           id="path831" />
      </g>
      <g
         id="g839">
        <path
           class="d"
           d="m 470.98,776.07 h 29.2 V 711.6 C 457,707.17 418.98,695.84 391.04,680.02 360.68,662.86 342.25,640.37 342.25,615.76 v 128.52 c 0,53.41 86.87,96.86 194.82,97.89 l -66.09,-66.09 z"
           id="path835" />
        <path
           class="d"
           d="m 690.91,680.01 c -27.94,15.82 -65.96,27.15 -109.14,31.58 v 64.47 h 29.2 l -66.09,66.09 C 652.83,841.12 739.7,797.68 739.7,744.26 V 615.74 c 0,24.61 -18.42,47.09 -48.79,64.26 z"
           id="path837" />
      </g>
    </g>
  </g>
</svg>
