<?xml version="1.0" encoding="UTF-8" standalone="no"?>
<svg
   id="a"
   viewBox="0 0 2030 604"
   version="1.1"
   sodipodi:docname="prql-wordmark.svg"
   inkscape:version="1.2.2 (b0a8486, 2022-12-01)"
   width="2030"
   height="604"
   xmlns:inkscape="http://www.inkscape.org/namespaces/inkscape"
   xmlns:sodipodi="http://sodipodi.sourceforge.net/DTD/sodipodi-0.dtd"
   xmlns="http://www.w3.org/2000/svg"
   xmlns:svg="http://www.w3.org/2000/svg">
  <sodipodi:namedview
     id="namedview844"
     pagecolor="#ffffff"
     bordercolor="#666666"
     borderopacity="1.0"
     inkscape:showpageshadow="2"
     inkscape:pageopacity="0.0"
     inkscape:pagecheckerboard="0"
     inkscape:deskcolor="#d1d1d1"
     showgrid="false"
     inkscape:zoom="0.30903185"
     inkscape:cx="831.62949"
     inkscape:cy="203.86248"
     inkscape:window-width="1323"
     inkscape:window-height="752"
     inkscape:window-x="179"
     inkscape:window-y="25"
     inkscape:window-maximized="0"
     inkscape:current-layer="text1844" />
  <defs
     id="defs815">
    <style
       id="style813">.b{fill:#191717;}.c{fill:#dc3c2a;}.d{fill:#4081ec;}.e{fill:#e9af00;}</style>
  </defs>
  <g
     id="g825"
     transform="translate(-164.21663,-237.82124)">
    <g
       aria-label="PRQL"
       id="text1844"
       style="font-size:29.3333px;line-height:1.25;font-family:'Dancing Script';-inkscape-font-specification:'Dancing Script';font-variant-ligatures:none;word-spacing:0px">
      <path
         d="M 748.14589,750.77972 V 343.507 h 168.23863 q 45.73864,0 78.94887,17.89772 33.40911,17.69887 51.50571,49.51705 18.0966,31.61932 18.0966,73.57955 0,42.15909 -18.4944,73.7784 -18.2954,31.42046 -52.3011,48.7216 -34.00568,17.30113 -80.73863,17.30113 H 809.59475 v -77.55682 h 85.51136 q 22.27273,0 37.1875,-7.75568 15.11364,-7.75568 22.86932,-21.67613 7.75568,-14.11932 7.75568,-32.8125 0,-18.89205 -7.75568,-32.61364 -7.75568,-13.92046 -22.86932,-21.47727 -15.11363,-7.55682 -37.1875,-7.55682 h -48.52272 v 327.92613 z"
         style="font-size:560px;font-family:Inter;-inkscape-font-specification:'Inter, Normal'"
         id="path2080" />
      <path
         d="M 1113.2586,750.77972 V 343.507 h 168.2387 q 45.7386,0 78.9488,16.50568 33.4091,16.30682 51.5057,46.93182 18.0966,30.42613 18.0966,72.1875 0,42.35795 -18.4943,71.98863 -18.4943,29.43182 -52.5,44.94319 -34.0057,15.3125 -80.5398,15.3125 h -106.392 V 533.8195 h 88.0966 q 22.2727,0 37.1875,-5.76705 15.1136,-5.96591 22.8693,-17.89773 7.7557,-12.13068 7.7557,-31.02272 0,-18.89205 -7.7557,-31.22159 -7.7557,-12.52841 -22.8693,-18.69319 -15.1137,-6.36363 -37.1875,-6.36363 h -48.5228 v 327.92613 z m 229.2898,-186.13636 101.4205,186.13636 h -107.3864 l -99.4318,-186.13636 z"
         style="font-size:560px;font-family:Inter;-inkscape-font-specification:'Inter, Normal'"
         id="path2082" />
      <path
         d="m 1639.6497,604.41609 h 79.5454 l 33.8069,43.15341 44.3466,50.90909 68.2102,84.11932 h -89.0909 l -47.7273,-57.07387 -28.2386,-40.56818 z m 228.6932,-57.27273 q 0,67.21591 -25.8523,113.94886 -25.8523,46.73296 -70,70.99432 -43.9489,24.26137 -98.6364,24.26137 -54.8863,0 -98.8352,-24.46023 -43.9489,-24.46023 -69.8011,-70.99432 -25.6534,-46.73295 -25.6534,-113.75 0,-67.21591 25.6534,-113.94886 25.8522,-46.73296 69.8011,-70.99432 43.9489,-24.26136 98.8352,-24.26136 54.6875,0 98.6364,24.26136 44.1477,24.26136 70,70.99432 25.8523,46.73295 25.8523,113.94886 z m -100.625,0 q 0,-39.77273 -11.3353,-67.21591 -11.1363,-27.44318 -32.2159,-41.5625 -20.8806,-14.11932 -50.3125,-14.11932 -29.2329,0 -50.3125,14.11932 -21.0795,14.11932 -32.4147,41.5625 -11.1364,27.44318 -11.1364,67.21591 0,39.77273 11.1364,67.21591 11.3352,27.44318 32.4147,41.5625 21.0796,14.11932 50.3125,14.11932 29.4319,0 50.3125,-14.11932 21.0796,-14.11932 32.2159,-41.5625 11.3353,-27.44318 11.3353,-67.21591 z"
         style="font-size:560px;font-family:Inter;-inkscape-font-specification:'Inter, Normal'"
         id="path2084" />
      <path
         d="M 1926.2118,750.77972 V 343.507 h 98.4375 v 327.32954 h 169.4318 v 79.94318 z"
         style="font-size:560px;font-family:Inter;-inkscape-font-specification:'Inter, Normal'"
         id="path2086" />
    </g>
  </g>
  <g
     id="g841"
     transform="translate(-342.21663,-237.82124)">
    <path
       class="e"
       d="m 540.97,237.84 c -109.76,0 -198.72,43.81 -198.72,97.91 v 97.91 c 0,4.16 0.53,8.27 1.55,12.33 6.62,25.97 33.85,48.74 73.4,64.26 15.23,6 32.25,10.88 50.67,14.46 10.37,2.04 21.18,3.63 32.31,4.77 V 403.65 c -33.8,-3.41 -63.33,-10.97 -84.82,-21.19 -8.99,-4.3 -16.54,-9.04 -22.43,-14.12 -9.28,-7.98 -14.41,-16.83 -14.41,-26.16 0,-35.05 72.72,-63.44 162.46,-63.44 89.74,0 162.46,28.38 162.46,63.44 0,9.33 -5.13,18.18 -14.41,26.16 -5.9,5.08 -13.44,9.82 -22.43,14.12 -21.49,10.22 -51.02,17.78 -84.82,21.19 v 125.83 c 11.13,-1.15 21.94,-2.74 32.31,-4.77 18.42,-3.58 35.44,-8.46 50.67,-14.46 39.55,-15.52 66.77,-38.29 73.4,-64.26 1.02,-4.06 1.55,-8.17 1.55,-12.33 v -97.91 c 0,-54.1 -88.97,-97.91 -198.72,-97.91 z"
       id="path827" />
    <g
       id="g833">
      <path
         class="c"
         d="m 500.18,554.16 c -28.54,-2.94 -54.83,-8.88 -77.42,-17.12 -11.6,-4.26 -22.24,-9.09 -31.72,-14.46 -30.36,-17.17 -48.79,-39.65 -48.79,-64.26 v 128.52 c 0,4.93 0.73,9.77 2.13,14.46 v 0.05 c 7.98,26.25 37.04,49.08 78.38,64.21 22.6,8.24 48.89,14.19 77.42,17.12 z"
         id="path829" />
      <path
         class="c"
         d="m 690.91,522.58 c -9.48,5.37 -20.11,10.2 -31.72,14.46 -22.6,8.24 -48.89,14.19 -77.42,17.12 v 128.52 c 28.54,-2.94 54.83,-8.88 77.42,-17.12 41.34,-15.13 70.4,-37.96 78.38,-64.21 v -0.05 c 1.4,-4.69 2.13,-9.52 2.13,-14.46 V 458.32 c 0,24.61 -18.42,47.09 -48.79,64.26 z"
         id="path831" />
    </g>
    <g
       id="g839">
      <path
         class="d"
         d="m 470.98,776.07 h 29.2 V 711.6 C 457,707.17 418.98,695.84 391.04,680.02 360.68,662.86 342.25,640.37 342.25,615.76 v 128.52 c 0,53.41 86.87,96.86 194.82,97.89 l -66.09,-66.09 z"
         id="path835" />
      <path
         class="d"
         d="m 690.91,680.01 c -27.94,15.82 -65.96,27.15 -109.14,31.58 v 64.47 h 29.2 l -66.09,66.09 C 652.83,841.12 739.7,797.68 739.7,744.26 V 615.74 c 0,24.61 -18.42,47.09 -48.79,64.26 z"
         id="path837" />
    </g>
  </g>
</svg>
