<?xml version="1.0" encoding="UTF-8" standalone="no"?>
<svg
   id="a"
   viewBox="0 0 396 603"
   version="1.1"
   sodipodi:docname="prql.svg"
   width="396"
   height="603"
   inkscape:version="1.2.2 (b0a8486, 2022-12-01)"
   xmlns:inkscape="http://www.inkscape.org/namespaces/inkscape"
   xmlns:sodipodi="http://sodipodi.sourceforge.net/DTD/sodipodi-0.dtd"
   xmlns="http://www.w3.org/2000/svg"
   xmlns:svg="http://www.w3.org/2000/svg">
  <sodipodi:namedview
     id="namedview2030"
     pagecolor="#ffffff"
     bordercolor="#666666"
     borderopacity="1.0"
     inkscape:showpageshadow="2"
     inkscape:pageopacity="0.0"
     inkscape:pagecheckerboard="0"
     inkscape:deskcolor="#d1d1d1"
     showgrid="false"
     inkscape:zoom="1.2361274"
     inkscape:cx="247.5473"
     inkscape:cy="626.95803"
     inkscape:window-width="1028"
     inkscape:window-height="842"
     inkscape:window-x="471"
     inkscape:window-y="25"
     inkscape:window-maximized="0"
     inkscape:current-layer="a" />
  <defs
     id="defs2011">
    <style
       id="style2009">
      .b {
        fill: #191717;
      }

      .c {
        fill: #dc3c2a;
      }

      .d {
        fill: #4081ec;
      }

      .e {
        fill: #e9af00;
      }
    </style>
  </defs>
  <g
     id="g2027"
     transform="translate(-343.58588,-238.60651)">
    <path
       class="e"
       d="m 540.97,237.84 c -109.76,0 -198.72,43.81 -198.72,97.91 v 97.91 c 0,4.16 0.53,8.27 1.55,12.33 6.62,25.97 33.85,48.74 73.4,64.26 15.23,6 32.25,10.88 50.67,14.46 10.37,2.04 21.18,3.63 32.31,4.77 V 403.65 c -33.8,-3.41 -63.33,-10.97 -84.82,-21.19 -8.99,-4.3 -16.54,-9.04 -22.43,-14.12 -9.28,-7.98 -14.41,-16.83 -14.41,-26.16 0,-35.05 72.72,-63.44 162.46,-63.44 89.74,0 162.46,28.38 162.46,63.44 0,9.33 -5.13,18.18 -14.41,26.16 -5.9,5.08 -13.44,9.82 -22.43,14.12 -21.49,10.22 -51.02,17.78 -84.82,21.19 v 125.83 c 11.13,-1.15 21.94,-2.74 32.31,-4.77 18.42,-3.58 35.44,-8.46 50.67,-14.46 39.55,-15.52 66.77,-38.29 73.4,-64.26 1.02,-4.06 1.55,-8.17 1.55,-12.33 v -97.91 c 0,-54.1 -88.97,-97.91 -198.72,-97.91 z"
       id="path2013" />
    <g
       id="g2019">
      <path
         class="c"
         d="m 500.18,554.16 c -28.54,-2.94 -54.83,-8.88 -77.42,-17.12 -11.6,-4.26 -22.24,-9.09 -31.72,-14.46 -30.36,-17.17 -48.79,-39.65 -48.79,-64.26 v 128.52 c 0,4.93 0.73,9.77 2.13,14.46 v 0.05 c 7.98,26.25 37.04,49.08 78.38,64.21 22.6,8.24 48.89,14.19 77.42,17.12 z"
         id="path2015" />
      <path
         class="c"
         d="m 690.91,522.58 c -9.48,5.37 -20.11,10.2 -31.72,14.46 -22.6,8.24 -48.89,14.19 -77.42,17.12 v 128.52 c 28.54,-2.94 54.83,-8.88 77.42,-17.12 41.34,-15.13 70.4,-37.96 78.38,-64.21 v -0.05 c 1.4,-4.69 2.13,-9.52 2.13,-14.46 V 458.32 c 0,24.61 -18.42,47.09 -48.79,64.26 z"
         id="path2017" />
    </g>
    <g
       id="g2025">
      <path
         class="d"
         d="m 470.98,776.07 h 29.2 V 711.6 C 457,707.17 418.98,695.84 391.04,680.02 360.68,662.86 342.25,640.37 342.25,615.76 v 128.52 c 0,53.41 86.87,96.86 194.82,97.89 l -66.09,-66.09 z"
         id="path2021" />
      <path
         class="d"
         d="m 690.91,680.01 c -27.94,15.82 -65.96,27.15 -109.14,31.58 v 64.47 h 29.2 l -66.09,66.09 C 652.83,841.12 739.7,797.68 739.7,744.26 V 615.74 c 0,24.61 -18.42,47.09 -48.79,64.26 z"
         id="path2023" />
    </g>
  </g>
</svg>
